<svg width="27" height="27" viewBox="0 0 27 27" fill="none" xmlns="http://www.w3.org/2000/svg">
<path d="M26.27 3.35226C25.2931 3.88201 24.2522 4.23315 23.1669 4.40365C24.2833 3.57958 25.1355 2.28462 25.5361 0.723767C24.4952 1.491 23.3458 2.03294 22.121 2.33537C21.1326 1.03431 19.7239 0.228516 18.1871 0.228516C15.2054 0.228516 12.805 3.22032 12.805 6.88803C12.805 7.41576 12.8411 7.92319 12.9298 8.40626C8.45238 8.13631 4.49053 5.48346 1.82905 1.44229C1.3644 2.43888 1.09185 3.57958 1.09185 4.80757C1.09185 7.11333 2.05235 9.15726 3.48406 10.3406C2.61879 10.3203 1.76994 10.0097 1.0508 9.52058C1.0508 9.54087 1.0508 9.56726 1.0508 9.59365C1.0508 12.829 2.91761 15.5164 5.36565 16.1354C4.92727 16.2836 4.44948 16.3546 3.95364 16.3546C3.60884 16.3546 3.26077 16.3303 2.93403 16.241C3.63183 18.8776 5.61193 20.816 7.96638 20.8789C6.13405 22.6508 3.80751 23.7185 1.28887 23.7185C0.847208 23.7185 0.423604 23.6941 0 23.6271C2.38565 25.529 5.21296 26.6149 8.26192 26.6149C18.1723 26.6149 23.5905 16.4663 23.5905 7.66947C23.5905 7.37516 23.5823 7.091 23.5708 6.80887C24.6396 5.87114 25.5377 4.69999 26.27 3.35226Z" fill="#FFA654"/>
</svg>
